<svg id="logo" xmlns="http://www.w3.org/2000/svg" viewBox="0 0 80.32 24.09">
  <defs>
    <style>
      .cls-1 {
        fill: #fff;
      }
    </style>
  </defs>
  <g id="logo-path">
    <path class="cls-1" d="M31.59,31a12,12,0,1,1,12-12.11A12.1,12.1,0,0,1,31.59,31Zm-1.8-15.52c.74.05,1.48.08,2.22.14a17,17,0,0,1,4.68,1c.69.26,1.35.62,2,.93a1.13,1.13,0,0,0,1.56-.56,1,1,0,0,0-.46-1.44,19.76,19.76,0,0,0-2.29-1.06,21,21,0,0,0-6.17-1.2,22.82,22.82,0,0,0-6.33.46c-.32.07-.64.14-.95.24a1.07,1.07,0,0,0-.7,1.41,1,1,0,0,0,1.35.74A19.73,19.73,0,0,1,29.79,15.52Zm-.69,1.91c-.52.05-1.45.11-2.37.23-.65.09-1.29.27-1.92.42a.83.83,0,0,0-.72.77.91.91,0,0,0,1.2,1c.37-.1.73-.2,1.1-.27A15.65,15.65,0,0,1,31,19.39a14.6,14.6,0,0,1,4,.87c.8.31,1.56.73,2.33,1.1A.9.9,0,0,0,38.52,21a.88.88,0,0,0-.32-1.26c-.38-.23-.78-.44-1.18-.64A18.39,18.39,0,0,0,29.1,17.43Zm.56,3.91c-.74.05-1.48.07-2.22.16s-1.53.26-2.29.42a.67.67,0,0,0-.53.82.7.7,0,0,0,.77.61l.35-.06a18.29,18.29,0,0,1,4.37-.4,11.88,11.88,0,0,1,5.67,1.55,1.47,1.47,0,0,0,.28.14.74.74,0,0,0,1-.35.67.67,0,0,0-.26-1,1.71,1.71,0,0,0-.23-.13A13.47,13.47,0,0,0,29.66,21.34Z" transform="translate(-19.5 -6.95)"/>
    <path class="cls-1" d="M96.94,16.17c-.09.27-.14.43-.2.59-1,2.66-2,5.31-3.09,8a9.48,9.48,0,0,1-.48,1,2.47,2.47,0,0,1-2.4,1.34,4.09,4.09,0,0,1-1.69-.42c-.19-.09-.28-.21-.18-.41.2-.44.41-.87.62-1.32.3.09.55.19.82.25a1,1,0,0,0,1.27-.54.46.46,0,0,0,0-.44c-.82-1.95-1.63-3.92-2.44-5.88a.38.38,0,0,0-.42-.29c-.48,0-1,0-1.49,0v6.48a2.19,2.19,0,0,1-.39.06c-.43,0-.86,0-1.29,0s-.42,0-.43-.4V18.06l-.68,0c-.34,0-.36,0-.37-.35,0-.48,0-1,0-1.5h1c0-.43.07-.81.13-1.18a2.15,2.15,0,0,1,2.1-2,8.09,8.09,0,0,1,1.7.1c.37.05.37.09.37.49V15L89,14.93a3.7,3.7,0,0,0-.57-.07c-.9,0-1.19.32-1.09,1.28.13,0,.26,0,.39,0H90c.57,0,.47-.05.66.44q.9,2.37,1.82,4.73c.06.14.12.28.2.49.1-.22.17-.37.23-.53l1.71-4.77c.12-.36.13-.36.5-.36Z" transform="translate(-19.5 -6.95)"/>
    <path class="cls-1" d="M58.73,23.62V27L58,27c-.34,0-.69,0-1,0s-.38,0-.39-.37V16.42c0-.14.06-.24.21-.24h1.93l0,1c.09-.07.15-.1.19-.14a3.63,3.63,0,0,1,5.76,1.09,5,5,0,0,1-.11,4.69,3.72,3.72,0,0,1-4.34,1.78,5,5,0,0,1-1-.55A4.87,4.87,0,0,1,58.73,23.62Zm4.36-3.29-.05,0c0-.2,0-.41-.06-.62a2.14,2.14,0,0,0-4-.6,2.77,2.77,0,0,0,.13,2.73,2,2,0,0,0,2,1,1.92,1.92,0,0,0,1.7-1.26A8.65,8.65,0,0,0,63.09,20.33Z" transform="translate(-19.5 -6.95)"/>
    <path class="cls-1" d="M55.55,14.85l-1.12,1.6c-.37-.23-.68-.43-1-.61A3.6,3.6,0,0,0,51,15.35a2,2,0,0,0-.62.23,1,1,0,0,0,0,1.77,7.18,7.18,0,0,0,1.29.5c.57.19,1.16.33,1.73.52a5.37,5.37,0,0,1,1,.48,2.72,2.72,0,0,1,1.38,3.22,3,3,0,0,1-2.54,2.48A6.59,6.59,0,0,1,47.34,23a1.19,1.19,0,0,1-.1-.16l1.27-1.51.41.35a4.48,4.48,0,0,0,3.47,1,1.91,1.91,0,0,0,.73-.24,1.09,1.09,0,0,0,.05-1.91,8.38,8.38,0,0,0-1.5-.55c-.7-.22-1.43-.4-2.12-.66a2.66,2.66,0,0,1-1.89-2.58,3.11,3.11,0,0,1,1.65-2.91,4.69,4.69,0,0,1,3-.47A6,6,0,0,1,55.55,14.85Z" transform="translate(-19.5 -6.95)"/>
    <path class="cls-1" d="M70.24,24.69a4.29,4.29,0,0,1-4.28-3,4.38,4.38,0,0,1,3.67-5.59,4.31,4.31,0,0,1,3.87,1.27,4.14,4.14,0,0,1,1,4.27,4.17,4.17,0,0,1-3.16,3,3.69,3.69,0,0,1-.56.11Zm-2.3-4.33a2.33,2.33,0,0,0,.38,1.38,2.25,2.25,0,0,0,2.35,1.08,2.13,2.13,0,0,0,1.82-1.62,2.84,2.84,0,0,0,0-1.53A2.36,2.36,0,0,0,69.39,18,2.29,2.29,0,0,0,67.94,20.36Z" transform="translate(-19.5 -6.95)"/>
    <path class="cls-1" d="M75.93,18h-.8c-.21,0-.31-.1-.31-.32V16.43c0-.17.09-.25.26-.25h.82c0-.2,0-.37,0-.53,0-.47,0-.94,0-1.4,0-.21.06-.33.29-.33H78c.08.74,0,1.46,0,2.24h1.91c.35,0,.36,0,.37.34v1c0,.45,0,.48-.46.48s-.9,0-1.35,0h-.44a2.71,2.71,0,0,0,0,.37v3.42c0,.72.28,1,1,.92a7.19,7.19,0,0,0,.76-.14l.46-.14c0,.59,0,1.12,0,1.65,0,.07-.1.18-.18.22a3.6,3.6,0,0,1-3,.12A1.91,1.91,0,0,1,76,22.83a4.42,4.42,0,0,1,0-.63V18Z" transform="translate(-19.5 -6.95)"/>
    <path class="cls-1" d="M83.19,24.58H81.47c-.24,0-.34-.1-.33-.34s0-.62,0-.93V16.83c0-.13,0-.27,0-.41s.09-.24.26-.24h1.78Z" transform="translate(-19.5 -6.95)"/>
    <path class="cls-1" d="M83.51,13.78a1.35,1.35,0,0,1-1.26,1.37,1.43,1.43,0,0,1-1.38-1.34,1.37,1.37,0,0,1,1.37-1.33A1.29,1.29,0,0,1,83.51,13.78Z" transform="translate(-19.5 -6.95)"/>
    <path class="cls-1" d="M98.51,16.17a1.3,1.3,0,0,1,1.31,1.31,1.32,1.32,0,0,1-1.36,1.26,1.28,1.28,0,0,1-1.27-1.34A1.25,1.25,0,0,1,98.51,16.17Zm-.06,2.42a1.19,1.19,0,0,0,1.24-1.12,1.21,1.21,0,0,0-1.2-1.17,1.16,1.16,0,0,0-1.17,1.13A1.14,1.14,0,0,0,98.45,18.59Z" transform="translate(-19.5 -6.95)"/>
    <path class="cls-1" d="M98.81,17.61l.31.46a.27.27,0,0,1-.38-.1,1.44,1.44,0,0,0-.18-.25c-.13-.11-.25-.06-.3.11s-.05.18-.08.29c-.24-.2-.29-.64-.14-1.38a3.42,3.42,0,0,1,.64,0c.44.08.54.4.26.74A1.67,1.67,0,0,1,98.81,17.61Zm-.34-.78c-.1.15-.19.22-.21.31a.18.18,0,0,0,.18.24c.15,0,.35,0,.36-.19S98.62,17,98.47,16.83Z" transform="translate(-19.5 -6.95)"/>
  </g>
</svg>
